<?xml version="1.0" encoding="UTF-8" standalone="no"?>
<!DOCTYPE svg PUBLIC "-//W3C//DTD SVG 1.1//EN" "http://www.w3.org/Graphics/SVG/1.1/DTD/svg11.dtd">
<svg width="100%" height="100%" viewBox="0 0 1024 1024" version="1.1" xmlns="http://www.w3.org/2000/svg" xmlns:xlink="http://www.w3.org/1999/xlink" xml:space="preserve" xmlns:serif="http://www.serif.com/" style="fill-rule:evenodd;clip-rule:evenodd;stroke-linejoin:round;stroke-miterlimit:2;">
    <g id="Layer1">
        <rect x="0" y="0" width="1024" height="1024"/>
    </g>
    <g id="RBBT" transform="matrix(0.72942,0,0,0.72942,202.104,168.644)">
        <path d="M484,524C445.621,516.95 405.046,516.95 366.667,524C357.245,473.976 330.525,282.199 225.487,105.333C219.236,94.807 154.202,-14.699 103.053,13.527C82.873,24.664 -21.33,217.544 77.534,464.83C103.734,530.363 143.915,587.427 150.89,597.333C172.942,628.649 181.214,627.478 175.728,644.631C171.799,656.917 161.461,661.795 143.479,720C136.27,743.335 138.199,747.726 114.723,754.75C106.6,757.179 40.728,772.306 18.059,810.493C-33.244,896.919 365.307,972.858 680.338,908.901C876.183,869.14 836.036,810.208 825.713,799.98C783.839,758.494 723.285,759.584 713.044,739.586C711.431,736.437 701.612,698.736 692.382,678.667C674.276,639.294 671.991,639.181 674.203,633.333C678.901,620.915 781.811,509.095 808.897,334.86C837.775,149.096 759.907,25.398 755.048,20.112C719.905,-18.118 662.382,51.921 657.038,58.426C632.605,88.176 531.702,236.162 484,524M722.667,69.333C735.281,99.957 783.65,202.724 750.682,349.737C721.266,480.913 638.97,583.866 633.333,592C625.86,587.13 593.092,555.151 573.108,582.935C546.26,620.263 663.226,648.166 663.954,806.667C664.005,817.745 667.478,844.722 641.317,853.099C632.527,855.914 571.315,878.667 452,878.667C454.326,859.942 486.253,857.077 478.44,829.419C466.117,785.793 374.847,791.1 367.906,830.668C364.43,850.483 396.753,863.27 398.667,878.667C263.37,878.667 199.699,851.401 193.304,843.587C186.342,835.079 186.651,808.439 186.687,805.333C188.527,646.576 304.123,619.94 277.495,582.995C257.49,555.239 224.268,587.481 217.333,592C203.577,572.567 121.675,469.13 96.406,333.333C69.915,190.969 118.041,92.56 128,69.333C192.131,115.489 283.008,324.945 312.369,521.333C315.123,539.752 309.976,585.024 357.372,579.149C420.473,571.327 420.678,568.621 492.014,579.042C539.308,585.952 534.891,542.706 537.557,525.333C570.21,312.525 661.531,113.271 722.667,69.333M301.368,707.202C259.145,715.644 269.503,806.148 309.299,799.539C351.496,792.532 340.908,699.297 301.368,707.202M541.356,707.043C499.498,714.19 508.823,805.065 547.995,799.689C591.14,793.767 581,700.273 541.356,707.043Z" style="fill:rgb(250,250,250);fill-rule:nonzero;"/>
    </g>
</svg>
