<?xml version="1.0" encoding="UTF-8" standalone="no"?>
<!DOCTYPE svg PUBLIC "-//W3C//DTD SVG 1.1//EN" "http://www.w3.org/Graphics/SVG/1.1/DTD/svg11.dtd">
<svg width="100%" height="100%" viewBox="0 0 1024 1024" version="1.1" xmlns="http://www.w3.org/2000/svg" xmlns:xlink="http://www.w3.org/1999/xlink" xml:space="preserve" xmlns:serif="http://www.serif.com/" style="fill-rule:evenodd;clip-rule:evenodd;stroke-linejoin:round;stroke-miterlimit:2;">
    <g id="Backgrounds">
        <path id="Light-App-Icon-Background" serif:id="Light App Icon Background" d="M1024,180L1024,844C1024,943.345 943.345,1024 844,1024L180,1024C80.655,1024 -0,943.345 -0,844L-0,180C-0,80.655 80.655,-0 180,-0L844,-0C943.345,-0 1024,80.655 1024,180Z" style="fill:#fafafa;"/>
    </g>
    <path id="RBBT" d="M573.12,567.051C533.461,559.766 491.533,559.766 451.874,567.051C442.138,515.359 414.527,317.187 305.987,134.424C299.527,123.547 232.324,10.39 179.47,39.557C158.617,51.065 50.939,250.377 153.1,505.909C180.173,573.627 221.694,632.593 228.902,642.83C251.689,675.19 260.237,673.98 254.568,691.705C250.508,704.4 239.826,709.441 221.244,769.587C213.795,793.7 215.788,798.238 191.529,805.495C183.135,808.006 115.066,823.638 91.642,863.098C38.628,952.406 450.469,1030.88 776.005,964.787C978.38,923.701 936.895,862.803 926.227,852.234C882.957,809.365 820.384,810.491 809.801,789.827C808.134,786.572 797.988,747.614 788.451,726.876C769.74,686.19 767.38,686.073 769.665,680.031C774.519,667.198 880.861,551.649 908.85,371.604C938.692,179.646 858.226,51.823 853.206,46.361C816.891,6.856 757.449,79.231 751.928,85.953C726.679,116.695 622.412,269.616 573.12,567.051M819.745,97.224C832.78,128.869 882.762,235.063 848.695,386.977C818.297,522.528 733.257,628.913 727.433,637.319C719.71,632.287 685.85,599.241 665.199,627.952C637.455,666.524 758.322,695.357 759.074,859.144C759.127,870.591 762.716,898.468 735.683,907.124C726.599,910.033 663.346,933.545 540.053,933.545C542.456,914.196 575.448,911.235 567.375,882.654C554.641,837.574 460.327,843.058 453.154,883.945C449.562,904.421 482.963,917.634 484.941,933.545C345.132,933.545 279.339,905.369 272.731,897.295C265.536,888.504 265.855,860.975 265.892,857.766C267.794,693.715 387.245,666.19 359.729,628.014C339.057,599.333 304.726,632.649 297.561,637.319C283.346,617.238 198.713,510.352 172.601,370.027C145.226,222.916 194.958,121.225 205.249,97.224C271.518,144.919 365.426,361.359 395.766,564.296C398.611,583.329 393.293,630.11 442.269,624.039C507.475,615.957 507.686,613.16 581.401,623.929C630.272,631.069 625.708,586.382 628.463,568.429C662.204,348.525 756.571,142.627 819.745,97.224M384.398,756.363C340.767,765.086 351.47,858.607 392.593,851.778C436.197,844.538 425.257,748.194 384.398,756.363M632.389,756.198C589.135,763.584 598.77,857.488 639.249,851.933C683.832,845.814 673.354,749.203 632.389,756.198Z" style="fill:url(#_Linear1);fill-rule:nonzero;"/>
    <defs>
        <linearGradient id="_Linear1" x1="0" y1="0" x2="1" y2="0" gradientUnits="userSpaceOnUse" gradientTransform="matrix(956.484,-956.484,956.484,956.484,33.7582,990.242)"><stop offset="0" style="stop-color:#72004e;stop-opacity:1"/><stop offset="0.42" style="stop-color:#512381;stop-opacity:1"/><stop offset="1" style="stop-color:#0970ef;stop-opacity:1"/></linearGradient>
    </defs>
</svg>
